<?xml version="1.0" standalone="no"?>
<!DOCTYPE svg PUBLIC "-//W3C//DTD SVG 20010904//EN"
 "http://www.w3.org/TR/2001/REC-SVG-20010904/DTD/svg10.dtd">
<svg version="1.0" xmlns="http://www.w3.org/2000/svg"
 width="333.000000pt" height="333.000000pt" viewBox="0 0 333.000000 333.000000"
 preserveAspectRatio="xMidYMid meet">
<metadata>
Created by potrace 1.11, written by Peter Selinger 2001-2013
</metadata>
<g transform="translate(0.000000,333.000000) scale(0.100000,-0.100000)"
fill="#000000" stroke="none">
<path d="M1500 3309 c-81 -20 -199 -75 -252 -118 -40 -31 -138 -132 -138 -141
0 -4 21 -22 46 -40 l47 -33 41 45 c119 129 267 191 445 184 152 -6 275 -60
383 -168 l59 -59 44 32 c25 18 45 35 45 39 0 17 -87 104 -145 145 -169 121
-382 163 -575 114z"/>
<path d="M1559 3083 c-213 -54 -353 -238 -348 -458 1 -50 9 -99 20 -130 23
-61 23 -72 3 -110 -34 -63 -164 -324 -166 -334 -2 -6 21 -22 50 -36 l52 -24
83 164 82 165 33 -31 c39 -36 133 -85 193 -98 140 -33 313 11 411 103 l26 25
82 -164 c45 -91 83 -165 85 -165 4 0 92 40 104 47 2 1 -40 88 -94 194 l-97
191 22 69 c95 295 -111 591 -420 603 -37 2 -91 -3 -121 -11z m219 -127 c243
-88 303 -397 111 -570 -68 -62 -120 -81 -224 -81 -75 0 -98 4 -140 25 -70 34
-126 89 -161 157 -25 49 -29 71 -31 144 -2 76 1 93 26 145 76 161 257 239 419
180z"/>
<path d="M858 1968 c-14 -31 -13 -36 14 -93 55 -119 30 -257 -63 -342 -34 -31
-120 -72 -157 -75 -27 -2 -35 -9 -56 -53 l-23 -50 26 -50 c22 -43 26 -63 26
-135 0 -101 -21 -151 -90 -215 -43 -40 -119 -75 -161 -75 -16 0 -28 -13 -46
-52 l-25 -52 25 -47 c76 -147 18 -324 -130 -398 -34 -17 -74 -31 -89 -31 -24
0 -32 -7 -44 -37 -8 -20 -14 -37 -12 -39 1 -1 107 -52 235 -112 l232 -110 36
76 c20 43 53 113 74 157 21 44 57 121 80 170 23 50 66 142 95 205 29 63 76
165 105 225 29 61 62 133 75 160 12 28 38 84 58 125 19 41 52 111 72 155 21
44 69 148 107 230 140 300 134 285 119 285 -5 0 -53 21 -108 46 -187 88 -353
164 -356 164 -2 0 -10 -14 -19 -32z"/>
<path d="M2330 1939 c-69 -32 -175 -81 -237 -110 -101 -47 -111 -54 -103 -73
4 -12 30 -68 58 -126 27 -58 64 -136 82 -175 18 -38 51 -108 73 -155 21 -47
54 -116 72 -155 38 -82 439 -941 496 -1062 21 -46 41 -83 44 -83 3 0 13 4 23
10 20 12 234 112 342 160 41 19 81 38 88 43 16 12 12 23 -58 171 -31 66 -82
175 -113 241 -30 66 -74 161 -97 210 -23 50 -58 124 -77 165 -19 41 -51 109
-70 150 -105 224 -114 242 -273 585 -18 39 -53 113 -79 166 l-46 97 -125 -59z"/>
</g>
</svg>
