<svg id="Layer_1" data-name="Layer 1" xmlns="http://www.w3.org/2000/svg" viewBox="0 0 997.62 191.67"><defs><style>.cls-1{font-size:150px;font-family:Lora-Regular, Lora;}.cls-1,.cls-4{fill:#fff;}.cls-2{letter-spacing:-0.01em;}.cls-3{letter-spacing:-0.01em;}</style></defs><title>logo</title><text class="cls-1" transform="translate(195.24 161.11)">IN<tspan class="cls-2" x="164.55" y="0">F</tspan><tspan class="cls-3" x="245.7" y="0">O</tspan><tspan x="363.45" y="0">RMED</tspan></text><polygon class="cls-4" points="125.76 80.31 167.12 169.05 143.49 180.08 102.1 91.33 125.76 80.31"/><path class="cls-4" d="M86.24,19.52a28.83,28.83,0,0,0-23.1,11.67l-4.71-3.45a34.53,34.53,0,0,1,48.28-7.35,34.15,34.15,0,0,1,7.35,7.35l-4.71,3.45A28.83,28.83,0,0,0,86.24,19.52Z"/><path class="cls-4" d="M46.76,80.1l23.63,11L29,179.88l-23.64-11L7,165.31A14.81,14.81,0,0,0,18.12,141.5l2.37-5.12A14.81,14.81,0,0,0,31.6,112.54l2.4-5.09A14.84,14.84,0,0,0,45.12,83.61Z"/><path class="cls-4" d="M103.27,48.25A17,17,0,1,0,71.59,56.9l.94,1.41a17,17,0,0,0,23.7,3.74A17.45,17.45,0,0,0,100,58.31l.93-1.41A17,17,0,0,0,103.27,48.25ZM56.12,78l9.74-19.42a22.86,22.86,0,1,1,40.8,0l9.8,19.6-5.29,2.49L102.83,64a22.74,22.74,0,0,1-32.14,1c-.34-.32-.68-.65-1-1l-8.25,16.5Z"/></svg>